<?xml version="1.0" encoding="UTF-8"?>
<svg version="1.1" xmlns="http://www.w3.org/2000/svg" width="460" height="460">
<path d="M0 0 C151.8 0 303.6 0 460 0 C460 151.8 460 303.6 460 460 C308.2 460 156.4 460 0 460 C0 308.2 0 156.4 0 0 Z " fill="#FEFEFE" transform="translate(0,0)"/>
<path d="M0 0 C4.16949407 0.70664555 7.6223533 2.35044235 11.25 4.47265625 C17.03098985 7.73760166 22.90398582 10.76222295 28.84828186 13.71676636 C36.33169247 17.4390807 43.76109708 21.26319051 51.1875 25.09765625 C52.62684731 25.83980977 54.06621947 26.58191508 55.50561523 27.32397461 C64.2855899 31.85252722 73.05244689 36.40568149 81.8125 40.97265625 C92.14809352 46.35922608 102.53817276 51.62122283 113.00390625 56.75 C120.90157323 60.63814394 128.6587936 64.73490625 136.375 68.97265625 C145.83630026 74.16989244 145.83630026 74.16989244 155.375 79.22265625 C156.42945313 79.77566406 157.48390625 80.32867187 158.5703125 80.8984375 C161.63103132 82.05401501 162.27580871 82.08604456 165.25 80.91015625 C167.90127881 78.84575992 167.90127881 78.84575992 170.64477539 76.19677734 C171.1665162 75.70819433 171.68825701 75.21961132 172.22580814 74.71622276 C178.59008325 68.71666292 184.76328983 62.52180075 190.93359375 56.32421875 C192.20461752 55.05132293 193.47586742 53.77865286 194.74732971 52.50619507 C198.05683173 49.19291941 201.36332017 45.87665295 204.66912842 42.55969238 C208.03734546 39.18118807 211.40844183 35.80555942 214.77929688 32.4296875 C220.2149367 26.98531577 225.64888345 21.5392615 231.08044434 16.09082031 C233.37676733 13.78754823 235.67597841 11.48767346 237.98524475 9.19735718 C240.25926011 6.96407209 240.25926011 6.96407209 242.1875 4.59765625 C244.94156202 2.34433278 246.79031142 2.59563911 250.25 2.91015625 C251.86244264 5.76081525 252.50019085 7.7999881 252.50168228 11.06849384 C252.50689778 11.8942225 252.51211327 12.71995116 252.51748681 13.5707019 C252.51302537 14.47253949 252.50856392 15.37437708 252.50396729 16.30354309 C252.50708727 17.26574019 252.51020725 18.22793728 252.51342177 19.21929187 C252.52141583 22.45200185 252.51507252 25.68452486 252.50878906 28.91723633 C252.51149835 31.23156342 252.51505893 33.54588965 252.51940918 35.86021423 C252.52854436 42.15365652 252.52498385 48.44703339 252.51865101 54.74047685 C252.51359505 61.3222409 252.5182815 67.90399928 252.52142334 74.48576355 C252.52569864 86.2517847 252.51907259 98.01777829 252.50890467 109.78379466 C252.49997529 120.44645407 252.5015158 131.10906991 252.51074219 141.77172852 C252.52145269 154.15530717 252.52542479 166.53885805 252.51951766 178.92244071 C252.5163992 185.47699415 252.51598508 192.03151759 252.52259064 198.58606911 C252.52836914 204.75102155 252.52435783 210.91589178 252.51280212 217.08083534 C252.51015791 219.34354007 252.51091655 221.60625173 252.51532745 223.8689537 C252.52079385 226.95800198 252.51393517 230.04678697 252.50396729 233.13581848 C252.50842873 234.03096391 252.51289017 234.92610934 252.51748681 235.84838039 C252.44322586 247.71693039 252.44322586 247.71693039 249.25 250.91015625 C244.59689617 251.47802138 241.63433401 249.86116706 237.5625 247.72265625 C236.30473696 247.07021715 235.04692429 246.4178737 233.7890625 245.765625 C232.62117187 245.15332031 231.45328125 244.54101562 230.25 243.91015625 C228.64801148 243.11409119 227.04409196 242.32188942 225.4375 241.53515625 C220.95851753 239.29933031 216.54318027 236.95043106 212.125 234.59765625 C203.90361435 230.22289905 195.59634663 226.04028603 187.25 221.91015625 C178.73061771 217.69388914 170.26263705 213.41551254 161.89208984 208.91015625 C154.11691593 204.74059454 146.20081847 200.85437048 138.29394531 196.94238281 C130.46010551 193.06287944 122.67089503 189.11172971 114.9375 185.03515625 C113.76006226 184.41483521 113.76006226 184.41483521 112.55883789 183.78198242 C108.36226123 181.56644622 104.17517196 179.33430786 99.99609375 177.0859375 C99.13862549 176.62751465 98.28115723 176.1690918 97.39770508 175.69677734 C95.75529682 174.81843146 94.11564814 173.93489941 92.47924805 173.04541016 C91.73586182 172.6488623 90.99247559 172.25231445 90.2265625 171.84375 C89.57768066 171.49368896 88.92879883 171.14362793 88.26025391 170.78295898 C85.81815589 169.72266018 83.91861224 169.13995342 81.25 168.91015625 C71.85567119 174.1899104 63.96527391 183.98427687 56.46127701 191.60968018 C54.21311833 193.89305044 51.95757496 196.16889118 49.69992065 198.44287109 C43.29026124 204.90109722 36.8924008 211.3709229 30.50292969 217.84912109 C26.57596001 221.82959021 22.63935296 225.80031349 18.69662094 229.76516724 C17.20088957 231.27330966 15.70896339 232.7852359 14.22095108 234.30099487 C12.14866075 236.41163831 10.06441212 238.50974444 7.97705078 240.60546875 C7.3671077 241.23293503 6.75716461 241.86040131 6.1287384 242.50688171 C3.64475707 244.97952716 1.80351554 246.69110618 -1.48294067 247.99169922 C-3.75 247.91015625 -3.75 247.91015625 -5.36809599 246.66382027 C-7.06104402 244.51543512 -7.12572139 243.47964752 -7.12752342 240.76998901 C-7.13534666 239.92288424 -7.14316991 239.07577946 -7.15123022 238.20300484 C-7.14453805 237.27218023 -7.13784589 236.34135563 -7.13095093 235.38232422 C-7.1356309 234.39365797 -7.14031087 233.40499172 -7.14513266 232.38636589 C-7.15714273 229.05822391 -7.14760186 225.73048913 -7.13818359 222.40234375 C-7.14224662 220.02256021 -7.14758697 217.64277855 -7.15411377 215.26300049 C-7.16639974 209.4610618 -7.16456491 203.65925352 -7.15587585 197.85731077 C-7.14910721 193.14296227 -7.14817902 188.4286464 -7.1514473 183.71429443 C-7.151907 183.04392965 -7.15236669 182.37356487 -7.15284032 181.682886 C-7.15379948 180.32115379 -7.15477212 178.95942159 -7.1557581 177.59768939 C-7.1643176 164.82159662 -7.15446911 152.04556838 -7.138357 139.26948619 C-7.12495329 128.30136993 -7.12728123 117.33334892 -7.14111328 106.36523438 C-7.15715924 93.63560225 -7.16349357 80.90602671 -7.15427649 68.17638588 C-7.15332082 66.81959662 -7.15237771 65.46280735 -7.1514473 64.10601807 C-7.15098447 63.43841048 -7.15052164 62.7708029 -7.15004479 62.08296478 C-7.14745194 57.37298405 -7.15183224 52.66303914 -7.15888596 47.95306396 C-7.16752941 41.61655878 -7.16158167 35.28023409 -7.14420319 28.94374847 C-7.14022431 26.61325124 -7.14139616 24.28273891 -7.14799118 21.95224762 C-7.1561414 18.78062027 -7.14596403 15.60957795 -7.13095093 12.43798828 C-7.13764309 11.50716368 -7.14433526 10.57633907 -7.15123022 9.61730766 C-7.14340697 8.77020288 -7.13558373 7.92309811 -7.12752342 7.05032349 C-7.12703637 6.31795031 -7.12654931 5.58557713 -7.12604749 4.83101082 C-6.2708329 0.46256561 -4.20207505 -0.10067471 0 0 Z " fill="#010101" transform="translate(106.75,104.08984375)"/>
</svg>
